<svg t="1717428566744" class="icon" viewBox="0 0 1024 1024" version="1.1" xmlns="http://www.w3.org/2000/svg" p-id="1670" width="200" height="200"><path d="M320 159.68l37.12 0.32c14.72 0 26.88 12.16 26.88 26.88v528.96c0 52.8-64 90.88-118.72 40a27.456 27.456 0 0 1-9.28-20.8V196.48h80L320 159.68zM720 160h21.12c14.72 0 26.88 12.16 26.88 26.88v528.96c0 52.8-64 90.88-118.72 40.32a27.456 27.456 0 0 1-9.28-20.8V196.8h80V160z" p-id="1671" fill="rgb(100, 108, 255)"></path><path d="M785.92 256.32H238.08c-62.4 0-121.28-25.92-165.44-73.28-11.52-12.48-11.52-32.64 0-45.12a28.48 28.48 0 0 1 42.24 0c32.96 35.2 76.48 54.72 123.2 54.72h547.84c46.4 0 90.24-19.52 123.2-54.72a28.48 28.48 0 0 1 42.24 0c11.52 12.48 11.52 32.64 0 45.12-44.16 47.04-103.04 73.28-165.44 73.28z" p-id="1672" fill="rgb(100, 108, 255)"></path><path d="M173.632 691.584a174.464 174.464 0 0 1 55.424-336.128l-4.736-4.736c-6.4-6.4-6.4-16.32 0-22.72 6.08-6.4 16.32-6.4 22.4 0l11.264 11.136 11.136-11.136c6.08-6.08 16.32-6.08 22.4 0.32 6.4 6.4 6.4 16.32 0 22.72l-4.448 4.448A174.496 174.496 0 0 1 448 494.56V192c0-35.2 28.8-64 64-64s64 28.8 64 64v352l16.416 63.68c0 53.12 26.464 64 79.584 64 53.12 0 85.28-10.88 85.28-64L768 544V192c0-35.2 28.8-64 64-64s64 28.8 64 64v388.032A128.32 128.32 0 0 1 928 576c17.6 0 32 14.4 32 32s-14.4 32-32 32c-25.504 0-36.224 20.352-42.88 41.152-1.76 7.04-3.712 13.984-5.856 20.832L878.72 704h-0.096c-47.36 148.48-186.464 256-350.624 256-168.704 0-310.912-113.6-354.368-268.416z" p-id="1673" fill="rgb(100, 108, 255)"></path><path d="M240 272V175.68c0-8.96 7.04-16 16-16s16 7.04 16 16c0-8.96 7.04-16 16-16s16 7.04 16 16c0-8.96 7.04-16 16-16s16 7.04 16 16V240c0 17.6-14.4 32-32 32v-32c0 17.6-14.4 32-32 32v-32c0 17.6-14.4 32-32 32zM238.4 387.2h38.72a142.56 142.56 0 0 1 136.512 101.824l-10.752 107.36A142.176 142.176 0 0 1 277.44 672H238.4a142.72 142.72 0 0 1-126.272-76.704l-9.792-107.68A142.848 142.848 0 0 1 238.4 387.2zM768 608c0 53.12-42.88 96-96 96s-96-42.88-96-96v-96a96 96 0 0 0 97.6 96c52.8-0.96 94.4-44.8 94.4-97.6V608zM640 175.68V272c17.6 0 32-14.4 32-32v32c17.6 0 32-14.4 32-32v32c17.6 0 32-14.4 32-32V175.68c0-8.96-7.04-16-16-16s-16 7.04-16 16c0-8.96-7.04-16-16-16s-16 7.04-16 16c0-8.96-7.04-16-16-16s-16 7.04-16 16z" p-id="1674" fill="rgb(100, 108, 255)"></path><path d="M313.6 572.48a53.6 53.6 0 0 1-37.76-65.6c7.68-28.48 36.8-45.44 65.28-37.76l72.64 19.52a141.824 141.824 0 0 1-10.88 108.16l-89.28-24.32zM102.4 487.36l68.8-18.24c28.48-7.68 57.92 9.28 65.28 38.08 7.68 28.48-9.28 57.92-37.76 65.6l-86.4 23.04C102.08 576 96 553.6 96 529.6c0-14.72 2.24-29.12 6.4-42.24z" p-id="1675" fill="rgb(100, 108, 255)"></path><path d="M184 544a24 24 0 1 0 0-48 24 24 0 0 0 0 48zM248 588.16l-21.44-17.6a15.04 15.04 0 0 1 9.6-26.56h43.52a15.04 15.04 0 0 1 9.6 26.56l-21.12 17.6c-6.08 4.8-14.4 4.8-20.16 0zM352 520a24 24 0 1 1-48 0 24 24 0 0 1 48 0z" p-id="1676" fill="#1296db"></path></svg>
